<?xml version="1.0" encoding="iso-8859-1"?>
<!-- Generator: Adobe Illustrator 19.0.0, SVG Export Plug-In . SVG Version: 6.00 Build 0)  -->
<svg xmlns="http://www.w3.org/2000/svg" xmlns:xlink="http://www.w3.org/1999/xlink" version="1.1" id="Capa_1" x="0px" y="0px" viewBox="0 0 512 512" style="enable-background:new 0 0 512 512;" xml:space="preserve">
<circle style="fill:#629FD6;" cx="284.232" cy="256" r="227.768"/>
<g>
	<path style="fill:#36C9AD;" d="M384.936,51.696c-5.144,9.24-11.048,24.984-3.792,40.88c11.288,24.712,4.776,24.24-16.288,32.584   s-9.664-8.344-32.584,0c0,0,2.664,26.432,0,32.584s-3.576,36.56-16.288,16.288s-28.672-26.808-28.672-26.808   s-7.912,0.936-7.912,24.184c0,16.816-31.376,35.544-28.568,51.504s1.344,17.512,10.808,24.416   c3.416,2.504,5.192,13.392,5.48,24.456c0.432,16.888-4.592,7.736,16.288,16.288s17.936,20.144,32.584,32.584   c14.648,12.44,24.168-0.968,32.584,32.584c8.416,33.552,20.288,60.136,32.584,48.872c12.296-11.264,24.512-16.568,32.584-48.872   s6.264-4.656,16.288-48.872c10.032-44.216,20.056-45.952,20.056-45.952s22.232-1.792,25.352,12.6   c2.92,13.448,15.744,10.688,19.576,8.184c4.584-3,11.768-10.72,16.816-16.44c0.064-2.256,0.168-4.496,0.168-6.76   C512,166.368,460.208,88.872,384.936,51.696z"/>
	<path style="fill:#36C9AD;" d="M185.704,108.88c20.016-8.672,43.648-13.864,65.152-16.288c21.512-2.416-2.264-24.928,0-32.584   c1.36-4.568,12.968-19.872,22.128-31.488c-22.704,1.104-44.512,5.56-64.992,12.832c-0.264,8.656-2.312,20.112-9.408,31.544   C196.864,75.672,173.256,114.264,185.704,108.88z"/>
	<path style="fill:#36C9AD;" d="M91.84,239.76c0.448-7.344,12.904-18.112,12.416-16.856c-0.496,1.264,16.704-37.728,16.288-48.872   c-0.416-11.136-6.68-26.352,0-48.872c3.424-11.552,6.08-24.904,7.856-35.2C84.144,131.512,56.464,190.504,56.464,256   c0,5.744,0.288,11.416,0.704,17.048C69.328,264.712,91.016,253.392,91.84,239.76z"/>
	<path style="fill:#36C9AD;" d="M220.032,474.528c6.24-62.448-49.456-78.336-50.624-88.712   c-1.696-15.088-33.264-32.456-48.872-32.584c-15.6-0.128-5.664-37.352-16.288-48.872c-6.664-7.224-25.552,6.728-38.128,17.32   C88.208,395.136,146.368,452.92,220.032,474.528z"/>
</g>
<g>
	<rect x="45.984" y="126.376" style="fill:#DFE6F4;" width="183.952" height="8"/>
	<rect x="137.96" y="181.2" style="fill:#DFE6F4;" width="124.864" height="8"/>
	<rect y="236.032" style="fill:#DFE6F4;" width="153.28" height="8"/>
	<rect x="261.344" y="264.56" style="fill:#DFE6F4;" width="183.952" height="8"/>
	<rect x="353.28" y="319.384" style="fill:#DFE6F4;" width="124.864" height="8"/>
	<rect x="215.36" y="374.2" style="fill:#DFE6F4;" width="153.28" height="8"/>
</g>
<g>
</g>
<g>
</g>
<g>
</g>
<g>
</g>
<g>
</g>
<g>
</g>
<g>
</g>
<g>
</g>
<g>
</g>
<g>
</g>
<g>
</g>
<g>
</g>
<g>
</g>
<g>
</g>
<g>
</g>
</svg>
