<?xml version="1.0" encoding="iso-8859-1"?>
<!-- Generator: Adobe Illustrator 19.0.0, SVG Export Plug-In . SVG Version: 6.00 Build 0)  -->
<svg xmlns="http://www.w3.org/2000/svg" xmlns:xlink="http://www.w3.org/1999/xlink" version="1.1" id="Capa_1" x="0px" y="0px" viewBox="0 0 512.008 512.008" style="enable-background:new 0 0 512.008 512.008;" xml:space="preserve">
<g>
	<rect x="56.68" y="261.016" style="fill:#AAC1CE;" width="8" height="206.496"/>
	<rect x="447.424" y="261.016" style="fill:#AAC1CE;" width="8" height="206.496"/>
	<rect x="100.08" y="276.752" style="fill:#AAC1CE;" width="8" height="190.768"/>
	<rect x="143.496" y="276.752" style="fill:#AAC1CE;" width="8" height="190.768"/>
	<rect x="186.912" y="276.752" style="fill:#AAC1CE;" width="8" height="190.768"/>
	<rect x="230.328" y="276.752" style="fill:#AAC1CE;" width="8" height="190.768"/>
	<rect x="273.72" y="276.752" style="fill:#AAC1CE;" width="8" height="190.768"/>
	<rect x="317.168" y="276.752" style="fill:#AAC1CE;" width="8" height="190.768"/>
	<rect x="360.6" y="276.752" style="fill:#AAC1CE;" width="8" height="190.768"/>
	<rect x="403.96" y="276.752" style="fill:#AAC1CE;" width="8" height="190.768"/>
</g>
<path style="fill:#B5C0D6;" d="M197.2,144.72h5.72c5.688-23.928,27.256-41.856,53.04-41.856c6.264,0,12.616,1.384,17.872,3.136  c12.616-35.8,46.776-61.512,87.064-61.512c51,0,92.344,41.136,92.344,91.88c0,3.2-0.176,6.344-0.48,9.464  c33.52,5.768,59.248,34.952,59.248,69.88c0,39.048-32.104,71.008-71.344,71.008H197.232c-39.24,0-71.344-31.944-71.344-71.008  C125.848,176.68,157.96,144.72,197.2,144.72z"/>
<path style="fill:#DFE6F4;" d="M314.808,195.84h-5.72c-5.688-23.928-27.256-41.856-53.04-41.856c-6.264,0-12.616,1.384-17.872,3.136  c-12.616-35.8-46.776-61.512-87.064-61.512c-51,0-92.344,41.136-92.344,91.88c0,3.2,0.176,6.344,0.48,9.464  C25.728,202.72,0,231.904,0,266.832c0,39.048,32.104,71.008,71.344,71.008h243.424c39.24,0,71.344-31.944,71.344-71.008  C386.152,227.8,354.048,195.84,314.808,195.84z"/>
<g>
</g>
<g>
</g>
<g>
</g>
<g>
</g>
<g>
</g>
<g>
</g>
<g>
</g>
<g>
</g>
<g>
</g>
<g>
</g>
<g>
</g>
<g>
</g>
<g>
</g>
<g>
</g>
<g>
</g>
</svg>
