<?xml version="1.0" encoding="iso-8859-1"?>
<!-- Generator: Adobe Illustrator 19.0.0, SVG Export Plug-In . SVG Version: 6.00 Build 0)  -->
<svg xmlns="http://www.w3.org/2000/svg" xmlns:xlink="http://www.w3.org/1999/xlink" version="1.1" id="Capa_1" x="0px" y="0px" viewBox="0 0 512 512" style="enable-background:new 0 0 512 512;" xml:space="preserve">
<g>
	<polygon style="fill:#FFCC67;" points="197.472,194.56 138.592,164.632 197.472,134.704  "/>
	<polygon style="fill:#FFCC67;" points="428.456,194.56 487.344,164.632 428.456,134.704  "/>
	<polygon style="fill:#FFCC67;" points="196.16,120.944 164.68,62.872 230.152,71.656  "/>
	<polygon style="fill:#FFCC67;" points="429.776,120.944 461.248,62.872 395.784,71.656  "/>
	<polygon style="fill:#FFCC67;" points="323.584,43.312 373.456,0 379.056,65.816  "/>
	<polygon style="fill:#FFCC67;" points="302.352,43.312 252.48,0 246.88,65.816  "/>
	<polygon style="fill:#FFCC67;" points="196.16,210.264 164.68,268.328 230.152,259.544  "/>
	<polygon style="fill:#FFCC67;" points="429.776,210.264 461.248,268.328 395.784,259.544  "/>
	<polygon style="fill:#FFCC67;" points="323.584,287.896 373.456,331.2 379.056,265.392  "/>
	<polygon style="fill:#FFCC67;" points="302.352,287.896 252.48,331.2 246.88,265.392  "/>
	<path style="fill:#FFCC67;" d="M311.944,65.816c-55.112,0-99.784,44.672-99.784,99.784s44.672,99.784,99.784,99.784   s99.784-44.672,99.784-99.784S367.056,65.816,311.944,65.816L311.944,65.816z"/>
</g>
<g>
	<path style="fill:#629FD6;" d="M324.96,225.64h-5.456c-5.424-22.824-26-39.928-50.6-39.928c-5.976,0-12.032,1.32-17.048,2.992   c-12.032-34.152-44.624-58.68-83.048-58.68c-48.656,0-88.096,39.24-88.096,87.648c0,3.048,0.168,6.056,0.456,9.032   c-31.976,5.504-56.512,33.336-56.512,66.664c0,37.248,30.624,67.736,68.056,67.736H324.92c37.432,0,68.056-30.472,68.056-67.736   C393.016,256.128,362.392,225.64,324.96,225.64z"/>
	<path style="fill:#629FD6;" d="M78.192,512h-8v-10.496h8V512z M78.192,485.504h-8v-16h8V485.504z M78.192,453.504h-8v-16h8V453.504   z M78.192,421.504h-8v-16h8V421.504z M78.192,389.504h-8v-16h8V389.504z M78.192,357.504h-8v-16h8V357.504z"/>
	<path style="fill:#629FD6;" d="M356.416,512h-8v-10.496h8V512z M356.416,485.504h-8v-16h8V485.504z M356.416,453.504h-8v-16h8   V453.504z M356.416,421.504h-8v-16h8V421.504z M356.416,389.504h-8v-16h8V389.504z M356.416,357.504h-8v-16h8V357.504z"/>
	<path style="fill:#629FD6;" d="M109.104,512h-8v-10.472h8V512z M109.104,485.528h-8v-16h8V485.528z M109.104,453.528h-8v-16h8   V453.528z M109.104,421.528h-8v-16h8V421.528z M109.104,389.528h-8v-16h8V389.528z M109.104,357.528h-8v-16h8V357.528z"/>
	<path style="fill:#629FD6;" d="M140.016,512h-8v-10.472h8V512z M140.016,485.528h-8v-16h8V485.528z M140.016,453.528h-8v-16h8   V453.528z M140.016,421.528h-8v-16h8V421.528z M140.016,389.528h-8v-16h8V389.528z M140.016,357.528h-8v-16h8V357.528z"/>
	<path style="fill:#629FD6;" d="M170.928,512h-8v-10.472h8V512z M170.928,485.528h-8v-16h8V485.528z M170.928,453.528h-8v-16h8   V453.528z M170.928,421.528h-8v-16h8V421.528z M170.928,389.528h-8v-16h8V389.528z M170.928,357.528h-8v-16h8V357.528z"/>
	<path style="fill:#629FD6;" d="M201.848,512h-8v-10.472h8V512z M201.848,485.528h-8v-16h8V485.528z M201.848,453.528h-8v-16h8   V453.528z M201.848,421.528h-8v-16h8V421.528z M201.848,389.528h-8v-16h8V389.528z M201.848,357.528h-8v-16h8V357.528z"/>
	<path style="fill:#629FD6;" d="M232.76,512h-8v-10.472h8V512z M232.76,485.528h-8v-16h8V485.528z M232.76,453.528h-8v-16h8V453.528   z M232.76,421.528h-8v-16h8V421.528z M232.76,389.528h-8v-16h8V389.528z M232.76,357.528h-8v-16h8V357.528z"/>
	<path style="fill:#629FD6;" d="M263.672,512h-8v-10.472h8V512z M263.672,485.528h-8v-16h8V485.528z M263.672,453.528h-8v-16h8   V453.528z M263.672,421.528h-8v-16h8V421.528z M263.672,389.528h-8v-16h8V389.528z M263.672,357.528h-8v-16h8V357.528z"/>
	<path style="fill:#629FD6;" d="M294.584,512h-8v-10.472h8V512z M294.584,485.528h-8v-16h8V485.528z M294.584,453.528h-8v-16h8   V453.528z M294.584,421.528h-8v-16h8V421.528z M294.584,389.528h-8v-16h8V389.528z M294.584,357.528h-8v-16h8V357.528z"/>
	<path style="fill:#629FD6;" d="M325.504,512h-8v-10.472h8V512z M325.504,485.528h-8v-16h8V485.528z M325.504,453.528h-8v-16h8   V453.528z M325.504,421.528h-8v-16h8V421.528z M325.504,389.528h-8v-16h8V389.528z M325.504,357.528h-8v-16h8V357.528z"/>
</g>
<g>
</g>
<g>
</g>
<g>
</g>
<g>
</g>
<g>
</g>
<g>
</g>
<g>
</g>
<g>
</g>
<g>
</g>
<g>
</g>
<g>
</g>
<g>
</g>
<g>
</g>
<g>
</g>
<g>
</g>
</svg>
