<?xml version="1.0" encoding="iso-8859-1"?>
<!-- Generator: Adobe Illustrator 19.0.0, SVG Export Plug-In . SVG Version: 6.00 Build 0)  -->
<svg xmlns="http://www.w3.org/2000/svg" xmlns:xlink="http://www.w3.org/1999/xlink" version="1.1" id="Capa_1" x="0px" y="0px" viewBox="0 0 512.008 512.008" style="enable-background:new 0 0 512.008 512.008;" xml:space="preserve">
<g>
	<path style="fill:#AAC1CE;" d="M64.616,512.004h-8v-14.496h8V512.004z M64.616,481.508h-8v-16h8V481.508z M64.616,449.508h-8v-16h8   V449.508z M64.616,417.508h-8v-16h8V417.508z M64.616,385.508h-8v-16h8V385.508z M64.616,353.508h-8v-16h8V353.508z    M64.616,321.508h-8v-16h8V321.508z"/>
	<path style="fill:#AAC1CE;" d="M455.384,512.004h-8v-14.496h8V512.004z M455.384,481.508h-8v-16h8V481.508z M455.384,449.508h-8   v-16h8V449.508z M455.384,417.508h-8v-16h8V417.508z M455.384,385.508h-8v-16h8V385.508z M455.384,353.508h-8v-16h8V353.508z    M455.384,321.508h-8v-16h8V321.508z"/>
	<path style="fill:#AAC1CE;" d="M108.04,512.004h-8v-14.472h8V512.004z M108.04,481.532h-8v-16h8V481.532z M108.04,449.532h-8v-16h8   V449.532z M108.04,417.532h-8v-16h8V417.532z M108.04,385.532h-8v-16h8V385.532z M108.04,353.532h-8v-16h8V353.532z    M108.04,321.532h-8v-16h8V321.532z"/>
	<path style="fill:#AAC1CE;" d="M151.456,512.004h-8v-14.472h8V512.004z M151.456,481.532h-8v-16h8V481.532z M151.456,449.532h-8   v-16h8V449.532z M151.456,417.532h-8v-16h8V417.532z M151.456,385.532h-8v-16h8V385.532z M151.456,353.532h-8v-16h8V353.532z    M151.456,321.532h-8v-16h8V321.532z"/>
	<path style="fill:#AAC1CE;" d="M194.872,512.004h-8v-14.472h8V512.004z M194.872,481.532h-8v-16h8V481.532z M194.872,449.532h-8   v-16h8V449.532z M194.872,417.532h-8v-16h8V417.532z M194.872,385.532h-8v-16h8V385.532z M194.872,353.532h-8v-16h8V353.532z    M194.872,321.532h-8v-16h8V321.532z"/>
	<path style="fill:#AAC1CE;" d="M238.288,512.004h-8v-14.472h8V512.004z M238.288,481.532h-8v-16h8V481.532z M238.288,449.532h-8   v-16h8V449.532z M238.288,417.532h-8v-16h8V417.532z M238.288,385.532h-8v-16h8V385.532z M238.288,353.532h-8v-16h8V353.532z    M238.288,321.532h-8v-16h8V321.532z"/>
	<path style="fill:#AAC1CE;" d="M281.712,512.004h-8v-14.472h8V512.004z M281.712,481.532h-8v-16h8V481.532z M281.712,449.532h-8   v-16h8V449.532z M281.712,417.532h-8v-16h8V417.532z M281.712,385.532h-8v-16h8V385.532z M281.712,353.532h-8v-16h8V353.532z    M281.712,321.532h-8v-16h8V321.532z"/>
	<path style="fill:#AAC1CE;" d="M325.128,512.004h-8v-14.472h8V512.004z M325.128,481.532h-8v-16h8V481.532z M325.128,449.532h-8   v-16h8V449.532z M325.128,417.532h-8v-16h8V417.532z M325.128,385.532h-8v-16h8V385.532z M325.128,353.532h-8v-16h8V353.532z    M325.128,321.532h-8v-16h8V321.532z"/>
	<path style="fill:#AAC1CE;" d="M368.544,512.004h-8v-14.472h8V512.004z M368.544,481.532h-8v-16h8V481.532z M368.544,449.532h-8   v-16h8V449.532z M368.544,417.532h-8v-16h8V417.532z M368.544,385.532h-8v-16h8V385.532z M368.544,353.532h-8v-16h8V353.532z    M368.544,321.532h-8v-16h8V321.532z"/>
	<path style="fill:#AAC1CE;" d="M411.96,512.004h-8v-14.472h8V512.004z M411.96,481.532h-8v-16h8V481.532z M411.96,449.532h-8v-16h8   V449.532z M411.96,417.532h-8v-16h8V417.532z M411.96,385.532h-8v-16h8V385.532z M411.96,353.532h-8v-16h8V353.532z    M411.96,321.532h-8v-16h8V321.532z"/>
</g>
<path style="fill:#DFE6F4;" d="M417.44,132.924h-7.584c-7.544-31.728-36.136-55.504-70.336-55.504  c-8.312,0-16.728,1.832-23.696,4.152C299.096,34.1,253.792,0.004,200.376,0.004c-67.632,0-122.456,54.544-122.456,121.84  c0,4.24,0.232,8.416,0.64,12.552C34.112,142.044,0,180.732,0,227.06c0,51.776,42.576,94.16,94.608,94.16H417.4  c52.032,0,94.608-42.36,94.608-94.16C512.04,175.3,469.472,132.924,417.44,132.924z"/>
<g>
</g>
<g>
</g>
<g>
</g>
<g>
</g>
<g>
</g>
<g>
</g>
<g>
</g>
<g>
</g>
<g>
</g>
<g>
</g>
<g>
</g>
<g>
</g>
<g>
</g>
<g>
</g>
<g>
</g>
</svg>
