<?xml version="1.0" encoding="iso-8859-1"?>
<!-- Generator: Adobe Illustrator 19.0.0, SVG Export Plug-In . SVG Version: 6.00 Build 0)  -->
<svg xmlns="http://www.w3.org/2000/svg" xmlns:xlink="http://www.w3.org/1999/xlink" version="1.1" id="Capa_1" x="0px" y="0px" viewBox="0 0 512 512" style="enable-background:new 0 0 512 512;" xml:space="preserve">
<polygon style="fill:#FE585D;" points="172.448,217.22 50.344,304.54 50.344,332.46 172.448,245.132 294.544,332.46 294.544,304.54   "/>
<g>
	<polygon style="fill:#DFE6F4;" points="70.784,472.044 70.784,317.02 172.448,243.82 274.104,317.02 274.104,472.044  "/>
	<path style="fill:#DFE6F4;" d="M324.256,146.5h3.408c3.392-14.272,16.256-24.968,31.632-24.968c3.736,0,7.52,0.824,10.656,1.872   c7.52-21.352,27.896-36.688,51.92-36.688c30.416,0,55.072,24.536,55.072,54.8c0,1.904-0.104,3.784-0.288,5.648   c19.992,3.44,35.336,20.84,35.336,41.68c0,23.288-19.144,42.352-42.552,42.352H324.272c-23.4,0-42.552-19.048-42.552-42.352   C281.704,165.564,300.848,146.5,324.256,146.5z"/>
</g>
<path style="fill:#B5C0D6;" d="M333.04,91.876h-3.408C326.24,77.604,313.376,66.908,298,66.908c-3.736,0-7.52,0.824-10.656,1.872  c-7.52-21.352-27.896-36.688-51.92-36.688c-30.416,0-55.072,24.536-55.072,54.8c0,1.904,0.104,3.784,0.288,5.648  c-19.992,3.44-35.336,20.84-35.336,41.68c0,23.288,19.144,42.352,42.552,42.352h145.176c23.4,0,42.552-19.048,42.552-42.352  C375.584,110.94,356.44,91.876,333.04,91.876z"/>
<rect y="463.908" style="fill:#36C9AD;" width="512" height="16"/>
<g>
</g>
<g>
</g>
<g>
</g>
<g>
</g>
<g>
</g>
<g>
</g>
<g>
</g>
<g>
</g>
<g>
</g>
<g>
</g>
<g>
</g>
<g>
</g>
<g>
</g>
<g>
</g>
<g>
</g>
</svg>
