<?xml version="1.0" encoding="iso-8859-1"?>
<!-- Generator: Adobe Illustrator 19.0.0, SVG Export Plug-In . SVG Version: 6.00 Build 0)  -->
<svg xmlns="http://www.w3.org/2000/svg" xmlns:xlink="http://www.w3.org/1999/xlink" version="1.1" id="Capa_1" x="0px" y="0px" viewBox="0 0 512 512" style="enable-background:new 0 0 512 512;" xml:space="preserve">
<circle style="fill:#FFFFFF;" cx="256" cy="256" r="131.984"/>
<path d="M256,135.248c66.576,0,120.752,54.16,120.752,120.752S322.576,376.752,256,376.752S135.248,322.576,135.248,256  S189.424,135.248,256,135.248 M256,103.248c-84.368,0-152.752,68.384-152.752,152.752S171.632,408.752,256,408.752  S408.752,340.368,408.752,256S340.368,103.248,256,103.248L256,103.248z"/>
<g>
	<rect x="444.976" y="234.24" style="fill:#FFD07D;" width="67.024" height="32"/>
	<rect x="240" style="fill:#FFD07D;" width="32" height="67.024"/>
	<rect x="240" y="444.976" style="fill:#FFD07D;" width="32" height="67.024"/>
	
		<rect x="379.832" y="82.701" transform="matrix(-0.7071 0.7071 -0.7071 -0.7071 775.4137 -123.7847)" style="fill:#FFD07D;" width="67.023" height="32"/>
	
		<rect x="65.164" y="397.322" transform="matrix(-0.7071 0.7071 -0.7071 -0.7071 460.7119 635.8108)" style="fill:#FFD07D;" width="67.023" height="32"/>
	
		<rect x="397.34" y="379.831" transform="matrix(-0.7071 0.7071 -0.7071 -0.7071 997.8925 413.3447)" style="fill:#FFD07D;" width="32" height="67.023"/>
	
		<rect x="82.676" y="65.163" transform="matrix(-0.7071 0.7071 -0.7071 -0.7071 238.2231 98.6735)" style="fill:#FFD07D;" width="32" height="67.023"/>
	<rect y="234.24" style="fill:#FFD07D;" width="67.024" height="32"/>
</g>
<g>
</g>
<g>
</g>
<g>
</g>
<g>
</g>
<g>
</g>
<g>
</g>
<g>
</g>
<g>
</g>
<g>
</g>
<g>
</g>
<g>
</g>
<g>
</g>
<g>
</g>
<g>
</g>
<g>
</g>
</svg>
