<?xml version="1.0" encoding="iso-8859-1"?>
<!-- Generator: Adobe Illustrator 19.0.0, SVG Export Plug-In . SVG Version: 6.00 Build 0)  -->
<svg xmlns="http://www.w3.org/2000/svg" xmlns:xlink="http://www.w3.org/1999/xlink" version="1.1" id="Capa_1" x="0px" y="0px" viewBox="0 0 512 512" style="enable-background:new 0 0 512 512;" xml:space="preserve">
<path d="M162.024,236.248H213l16.008-52.448l16.008,52.448h50.976l-41.224,31.84l16.008,52.08l-41.688-32.208L187.4,320.168  l15.92-52.08L162.024,236.248z"/>
<polygon style="fill:#629FD6;" points="229.112,287.96 270.792,320.168 254.776,268.088 296.008,236.248 245.024,236.248   229.016,183.8 213.008,236.248 162.024,236.248 203.344,268.088 187.424,320.168 "/>
<path style="fill:#DFE6F4;" d="M0,71.824h50.976l16.008-52.448l16.008,52.448h50.976l-41.224,31.84l16.008,52.08l-41.688-32.208  l-41.688,32.208l15.92-52.08L0,71.824z"/>
<polygon style="fill:#629FD6;" points="67.08,123.536 108.768,155.744 92.752,103.656 133.984,71.824 83,71.824 66.992,19.368   50.976,71.824 0,71.824 41.312,103.656 25.4,155.744 "/>
<g>
	<path style="fill:#B5C0D6;" d="M266.352,52.56h50.976l16.008-52.448l16.008,52.448h50.976L359.096,84.4l16.008,52.08   l-41.688-32.208l-41.688,32.208l15.92-52.08L266.352,52.56z"/>
	<polygon style="fill:#B5C0D6;" points="333.44,104.272 375.12,136.48 359.104,84.392 400.336,52.56 349.352,52.56 333.344,0.104    317.336,52.56 266.352,52.56 307.672,84.392 291.752,136.48  "/>
</g>
<g>
	<path style="fill:#DFE6F4;" d="M378.016,168.064h50.976L445,115.616l16.008,52.448H512l-41.224,31.84l16.008,52.08l-41.688-32.208   l-41.688,32.208l15.92-52.08L378.016,168.064z"/>
	<polygon style="fill:#DFE6F4;" points="445.104,219.776 486.784,251.984 470.776,199.896 512,168.064 461.024,168.064    445.008,115.616 429,168.064 378.016,168.064 419.336,199.896 403.416,251.984  "/>
	<path style="fill:#DFE6F4;" d="M28.048,393.68h50.976l16.008-52.448l16.008,52.448h50.976l-41.224,31.84L136.8,477.6   l-41.688-32.208L53.44,477.6l15.92-52.08L28.048,393.68z"/>
	<polygon style="fill:#DFE6F4;" points="95.128,445.392 136.808,477.6 120.8,425.52 162.024,393.68 111.048,393.68 95.032,341.232    79.024,393.68 28.048,393.68 69.36,425.52 53.44,477.6  "/>
</g>
<g>
	<path style="fill:#B5C0D6;" d="M266.352,427.976h50.976l16.008-52.448l16.008,52.448h50.976l-41.224,31.84l16.008,52.08   l-41.688-32.208l-41.688,32.208l15.92-52.08L266.352,427.976z"/>
	<polygon style="fill:#B5C0D6;" points="333.44,479.688 375.12,511.896 359.104,459.808 400.336,427.976 349.352,427.976    333.344,375.52 317.336,427.976 266.352,427.976 307.672,459.808 291.752,511.896  "/>
</g>
<g>
</g>
<g>
</g>
<g>
</g>
<g>
</g>
<g>
</g>
<g>
</g>
<g>
</g>
<g>
</g>
<g>
</g>
<g>
</g>
<g>
</g>
<g>
</g>
<g>
</g>
<g>
</g>
<g>
</g>
</svg>
