<?xml version="1.0" encoding="iso-8859-1"?>
<!-- Generator: Adobe Illustrator 19.0.0, SVG Export Plug-In . SVG Version: 6.00 Build 0)  -->
<svg xmlns="http://www.w3.org/2000/svg" xmlns:xlink="http://www.w3.org/1999/xlink" version="1.1" id="Capa_1" x="0px" y="0px" viewBox="0 0 508 508" style="enable-background:new 0 0 508 508;" xml:space="preserve">
<path d="M292.064,508c-27.6,0-50.064-22.464-50.064-50.064V303.272h24v154.664C266,472.304,277.696,484,292.064,484  s26.064-11.696,26.064-26.064l24-0.048C342.128,485.536,319.664,508,292.064,508z"/>
<g>
	<path style="fill:#629FD6;" d="M254,176.32c-79.888,0-147.096,53.712-167.856,126.952h335.712   C401.096,230.04,333.888,176.32,254,176.32L254,176.32z"/>
	<rect x="339" y="31.4" style="fill:#629FD6;" width="8" height="143.328"/>
	<rect x="220.336" style="fill:#629FD6;" width="8" height="143.328"/>
	<rect x="279.68" style="fill:#629FD6;" width="8" height="143.328"/>
	<rect x="161" y="31.4" style="fill:#629FD6;" width="8" height="143.328"/>
</g>
<g>
</g>
<g>
</g>
<g>
</g>
<g>
</g>
<g>
</g>
<g>
</g>
<g>
</g>
<g>
</g>
<g>
</g>
<g>
</g>
<g>
</g>
<g>
</g>
<g>
</g>
<g>
</g>
<g>
</g>
</svg>
