<?xml version="1.0" encoding="iso-8859-1"?>
<!-- Generator: Adobe Illustrator 19.0.0, SVG Export Plug-In . SVG Version: 6.00 Build 0)  -->
<svg xmlns="http://www.w3.org/2000/svg" xmlns:xlink="http://www.w3.org/1999/xlink" version="1.1" id="Capa_1" x="0px" y="0px" viewBox="0 0 512.003 512.003" style="enable-background:new 0 0 512.003 512.003;" xml:space="preserve">
<path style="fill:#B5C0D6;" d="M108.968,346.9v132.168c0,0,60.48-31.68,90.72-16.48s113.448,37.12,163.368,32.96  s130.088-70.24,145.288-92.16c15.2-22.08-19.68-24.8-54.4-6.88s-146.728,53.6-199.688,0c0,0,122.568,11.04,127.048,0  s-13.6-28.96-108.968-49.6S108.968,346.9,108.968,346.9z"/>
<rect y="346.884" style="fill:#FE585D;" width="72.64" height="148.648"/>
<g>
	<polygon style="fill:#629FD6;" points="310.496,15.94 310.488,15.94 310.496,15.956  "/>
	<path style="fill:#629FD6;" d="M361.664,99.316c-21.8-31.624-47.056-76.08-51.168-83.352v0.04l-0.016-0.048   c-4.096,7.264-29.368,51.728-51.168,83.36c-21.416,31.08-39.624,62.056-18.968,105.664c18.28,38.6,64.416,39.04,70.136,38.944   l0.016-0.056v0.056c5.72,0.096,51.856-0.344,70.136-38.944C401.288,161.364,383.08,130.388,361.664,99.316z"/>
	<polygon style="fill:#629FD6;" points="310.48,15.94 310.48,15.956 310.488,15.94  "/>
</g>
<g>
</g>
<g>
</g>
<g>
</g>
<g>
</g>
<g>
</g>
<g>
</g>
<g>
</g>
<g>
</g>
<g>
</g>
<g>
</g>
<g>
</g>
<g>
</g>
<g>
</g>
<g>
</g>
<g>
</g>
</svg>
