<?xml version="1.0" encoding="iso-8859-1"?>
<!-- Generator: Adobe Illustrator 19.0.0, SVG Export Plug-In . SVG Version: 6.00 Build 0)  -->
<svg xmlns="http://www.w3.org/2000/svg" xmlns:xlink="http://www.w3.org/1999/xlink" version="1.1" id="Capa_1" x="0px" y="0px" viewBox="0 0 512 512" style="enable-background:new 0 0 512 512;" xml:space="preserve">
<path style="fill:#DFE6F4;" d="M417.44,188.388h-7.584c-7.544-31.728-36.136-55.504-70.336-55.504  c-8.312,0-16.728,1.832-23.696,4.152c-16.728-47.472-62.032-81.56-115.448-81.56c-67.632,0-122.456,54.544-122.456,121.84  c0,4.24,0.232,8.416,0.64,12.552C34.112,197.508,0,236.204,0,282.532c0,51.776,42.576,94.16,94.608,94.16H417.4  c52.024-0.008,94.6-42.368,94.6-94.16C512.04,230.772,469.472,188.388,417.44,188.388z"/>
<g>
	
		<rect x="46.936" y="372.854" transform="matrix(-0.498 0.8672 -0.8672 -0.498 531.1901 446.2043)" style="fill:#629FD6;" width="179.012" height="8"/>
	<polygon style="fill:#629FD6;" points="175.12,456.524 168.176,452.54 257.168,297.228 264.112,301.212  "/>
	
		<rect x="206.357" y="372.851" transform="matrix(-0.498 0.8672 -0.8672 -0.498 769.9984 307.9519)" style="fill:#629FD6;" width="179.012" height="8"/>
	
		<rect x="286.066" y="372.852" transform="matrix(-0.498 0.8672 -0.8672 -0.498 889.4016 238.831)" style="fill:#629FD6;" width="179.012" height="8"/>
</g>
<g>
</g>
<g>
</g>
<g>
</g>
<g>
</g>
<g>
</g>
<g>
</g>
<g>
</g>
<g>
</g>
<g>
</g>
<g>
</g>
<g>
</g>
<g>
</g>
<g>
</g>
<g>
</g>
<g>
</g>
</svg>
