<?xml version="1.0" encoding="iso-8859-1"?>
<!-- Generator: Adobe Illustrator 19.0.0, SVG Export Plug-In . SVG Version: 6.00 Build 0)  -->
<svg xmlns="http://www.w3.org/2000/svg" xmlns:xlink="http://www.w3.org/1999/xlink" version="1.1" id="Capa_1" x="0px" y="0px" viewBox="0 0 512.016 512.016" style="enable-background:new 0 0 512.016 512.016;" xml:space="preserve">
<g>
	<rect x="56.644" y="305.52" style="fill:#AAC1CE;" width="8" height="206.496"/>
	<rect x="447.388" y="305.52" style="fill:#AAC1CE;" width="8" height="206.496"/>
	<rect x="100.044" y="321.2" style="fill:#AAC1CE;" width="8" height="190.768"/>
	<rect x="143.452" y="321.2" style="fill:#AAC1CE;" width="8" height="190.768"/>
	<rect x="186.876" y="321.2" style="fill:#AAC1CE;" width="8" height="190.768"/>
	<rect x="230.292" y="321.2" style="fill:#AAC1CE;" width="8" height="190.768"/>
	<rect x="273.684" y="321.2" style="fill:#AAC1CE;" width="8" height="190.768"/>
	<rect x="317.124" y="321.2" style="fill:#AAC1CE;" width="8" height="190.768"/>
	<rect x="360.564" y="321.2" style="fill:#AAC1CE;" width="8" height="190.768"/>
	<rect x="403.924" y="321.2" style="fill:#AAC1CE;" width="8" height="190.768"/>
</g>
<path style="fill:#DFE6F4;" d="M417.444,132.92h-7.584c-7.544-31.728-36.136-55.504-70.336-55.504  c-8.312,0-16.728,1.832-23.696,4.152C299.1,34.096,253.796,0,200.38,0C132.748,0,77.924,54.544,77.924,121.84  c0,4.24,0.232,8.416,0.64,12.552c-44.448,7.648-78.56,46.336-78.56,92.664c0,51.776,42.576,94.16,94.608,94.16h322.792  c52.032,0,94.608-42.36,94.608-94.16C512.044,175.296,469.476,132.92,417.444,132.92z"/>
<g>
</g>
<g>
</g>
<g>
</g>
<g>
</g>
<g>
</g>
<g>
</g>
<g>
</g>
<g>
</g>
<g>
</g>
<g>
</g>
<g>
</g>
<g>
</g>
<g>
</g>
<g>
</g>
<g>
</g>
</svg>
