<?xml version="1.0" encoding="iso-8859-1"?>
<!-- Generator: Adobe Illustrator 19.0.0, SVG Export Plug-In . SVG Version: 6.00 Build 0)  -->
<svg xmlns="http://www.w3.org/2000/svg" xmlns:xlink="http://www.w3.org/1999/xlink" version="1.1" id="Capa_1" x="0px" y="0px" viewBox="0 0 512.003 512.003" style="enable-background:new 0 0 512.003 512.003;" xml:space="preserve">
<path style="fill:#FFCC67;" d="M226.344,295.568L277.6,110.312l-63.88,0.016L244.328,2.96h126.64l-34.976,120.36h48.184  L226.344,295.568z"/>
<path style="fill:#B5C0D6;" d="M108.968,359.888v132.16c0,0,60.48-31.68,90.72-16.48s113.448,37.12,163.368,32.96  s130.088-70.24,145.288-92.16c15.2-22.08-19.68-24.8-54.4-6.88s-146.728,53.6-199.688,0c0,0,122.568,11.04,127.048,0  s-13.6-28.96-108.968-49.6S108.968,359.888,108.968,359.888z"/>
<rect y="359.888" style="fill:#FE585D;" width="72.64" height="148.648"/>
<g>
</g>
<g>
</g>
<g>
</g>
<g>
</g>
<g>
</g>
<g>
</g>
<g>
</g>
<g>
</g>
<g>
</g>
<g>
</g>
<g>
</g>
<g>
</g>
<g>
</g>
<g>
</g>
<g>
</g>
</svg>
