<?xml version="1.0" encoding="iso-8859-1"?>
<!-- Generator: Adobe Illustrator 19.0.0, SVG Export Plug-In . SVG Version: 6.00 Build 0)  -->
<svg xmlns="http://www.w3.org/2000/svg" xmlns:xlink="http://www.w3.org/1999/xlink" version="1.1" id="Capa_1" x="0px" y="0px" viewBox="0 0 512 512" style="enable-background:new 0 0 512 512;" xml:space="preserve">
<path style="fill:#FFCC67;" d="M203.852,0C166.5,0,131.06,8.064,99.068,22.44C188.188,62.488,250.284,151.96,250.284,256  S188.188,449.512,99.068,489.56C131.06,503.936,166.508,512,203.852,512c141.392,0,256-114.608,256-256S345.244,0,203.852,0z"/>
<path d="M52.148,156.632h17.848l5.608-18.368l5.608,18.368H99.06l-14.432,11.144l5.608,18.24l-14.6-11.28l-14.6,11.28l5.576-18.24  L52.148,156.632z"/>
<polygon points="75.636,174.736 90.228,186.016 84.628,167.776 99.06,156.632 81.212,156.632 75.604,138.264 69.996,156.632   52.148,156.632 66.612,167.776 61.036,186.016 "/>
<path d="M64.82,309.384h40.008l12.568-41.16l12.568,41.16h40.008l-32.352,24.984l12.568,40.872l-32.712-25.272L84.764,375.24  l12.488-40.872L64.82,309.384z"/>
<polygon points="117.468,349.968 150.18,375.24 137.612,334.368 169.964,309.384 129.956,309.384 117.396,268.224 104.828,309.384   64.82,309.384 97.244,334.368 84.756,375.24 "/>
<g>
</g>
<g>
</g>
<g>
</g>
<g>
</g>
<g>
</g>
<g>
</g>
<g>
</g>
<g>
</g>
<g>
</g>
<g>
</g>
<g>
</g>
<g>
</g>
<g>
</g>
<g>
</g>
<g>
</g>
</svg>
