<?xml version="1.0" encoding="iso-8859-1"?>
<!-- Generator: Adobe Illustrator 19.0.0, SVG Export Plug-In . SVG Version: 6.00 Build 0)  -->
<svg xmlns="http://www.w3.org/2000/svg" xmlns:xlink="http://www.w3.org/1999/xlink" version="1.1" id="Capa_1" x="0px" y="0px" viewBox="0 0 512 512" style="enable-background:new 0 0 512 512;" xml:space="preserve">
<path style="fill:#DFE6F4;" d="M417.44,180.344h-7.584c-7.544-31.728-36.136-55.504-70.336-55.504  c-8.312,0-16.728,1.832-23.696,4.152c-16.728-47.472-62.032-81.56-115.448-81.56c-67.632,0-122.456,54.544-122.456,121.84  c0,4.24,0.232,8.416,0.64,12.552C34.112,189.464,0,228.16,0,274.488c0,51.776,42.576,94.16,94.608,94.16H417.4  c52.024-0.008,94.6-42.368,94.6-94.16C512.04,222.728,469.472,180.344,417.44,180.344z"/>
<polygon style="fill:#629FD6;" points="330.664,195.544 238.472,310.968 330.664,310.968 266.864,464.568 440.552,265.776   331.08,265.776 "/>
<g>
</g>
<g>
</g>
<g>
</g>
<g>
</g>
<g>
</g>
<g>
</g>
<g>
</g>
<g>
</g>
<g>
</g>
<g>
</g>
<g>
</g>
<g>
</g>
<g>
</g>
<g>
</g>
<g>
</g>
</svg>
