<?xml version="1.0" encoding="iso-8859-1"?>
<!-- Generator: Adobe Illustrator 19.0.0, SVG Export Plug-In . SVG Version: 6.00 Build 0)  -->
<svg xmlns="http://www.w3.org/2000/svg" xmlns:xlink="http://www.w3.org/1999/xlink" version="1.1" id="Capa_1" x="0px" y="0px" viewBox="0 0 512 512" style="enable-background:new 0 0 512 512;" xml:space="preserve">
<path style="fill:#AAC1CE;" d="M256,374.28c-30.304,0-60.608-11.528-83.68-34.6c-46.136-46.144-46.136-121.216,0-167.36  c46.144-46.136,121.216-46.144,167.352,0s46.144,121.216,0,167.36C316.608,362.752,286.304,374.28,256,374.28z M256,145.712  c-28.256,0-56.504,10.752-78.024,32.264C134.96,221,134.96,291,177.976,334.024c43.024,43.032,113.024,43.032,156.04,0  C377.04,291,377.04,221,334.016,177.976C312.512,156.472,284.256,145.712,256,145.712z"/>
<path style="fill:#FFFFFF;" d="M256,508c-67.312,0-130.592-26.216-178.192-73.816S4,323.312,4,256S30.208,125.408,77.808,77.816  S188.688,4,256,4s130.592,26.216,178.192,73.816c47.592,47.592,73.816,110.872,73.816,178.184s-26.216,130.592-73.816,178.184  C386.592,481.784,323.312,508,256,508z"/>
<g>
	<path style="fill:#B5C0D6;" d="M256,8c66.24,0,128.52,25.8,175.36,72.64C478.2,127.48,504,189.76,504,256   s-25.8,128.52-72.64,175.36C384.52,478.2,322.24,504,256,504s-128.52-25.8-175.36-72.64S8,322.24,8,256S33.8,127.48,80.64,80.64   S189.76,8,256,8 M256,0C190.48,0,124.968,24.992,74.984,74.984c-99.976,99.976-99.976,262.064,0,362.04   C124.968,487.008,190.48,512,256,512s131.032-24.992,181.016-74.984c99.976-99.976,99.976-262.064,0-362.04   C387.032,24.992,321.52,0,256,0L256,0z"/>
	<path style="fill:#B5C0D6;" d="M262.4,479.912l-0.224-8c5.216-0.144,10.488-0.488,15.664-1.008l0.816,7.952   C273.28,479.408,267.808,479.768,262.4,479.912z M246.12,479.792c-5.368-0.24-10.832-0.68-16.232-1.304l0.92-7.952   c5.216,0.608,10.488,1.032,15.664,1.256L246.12,479.792z M294.776,476.632l-1.376-7.872c5.104-0.888,10.264-1.992,15.368-3.264   l1.936,7.768C305.424,474.576,300.064,475.712,294.776,476.632z M213.784,476c-5.352-1.024-10.696-2.248-15.88-3.632l2.072-7.736   c5,1.344,10.152,2.52,15.312,3.504L213.784,476z M326.344,468.72l-2.496-7.592c4.968-1.64,9.92-3.48,14.712-5.464l3.064,7.392   C336.64,465.112,331.504,467.016,326.344,468.72z M182.328,467.592c-5.136-1.792-10.24-3.784-15.176-5.904l3.168-7.344   c4.76,2.048,9.688,3.968,14.648,5.688L182.328,467.592z M356.424,456.288l-3.592-7.144c4.672-2.352,9.304-4.888,13.776-7.552   l4.096,6.872C366.064,451.224,361.264,453.856,356.424,456.288z M152.432,454.688c-4.776-2.496-9.544-5.2-14.168-8.064l4.208-6.8   c4.456,2.752,9.04,5.368,13.648,7.768L152.432,454.688z M384.36,439.624l-4.592-6.544c4.28-3,8.488-6.184,12.504-9.472l5.064,6.2   C393.152,433.216,388.792,436.512,384.36,439.624z M124.736,437.544c-4.352-3.16-8.672-6.536-12.84-10.04l5.16-6.128   c4.008,3.384,8.176,6.64,12.376,9.68L124.736,437.544z M409.576,419.072l-5.488-5.832c1.56-1.472,3.12-2.976,4.648-4.504   c3.688-3.68,7.288-7.544,10.704-11.496l6.048,5.232c-3.536,4.096-7.272,8.104-11.096,11.912   C412.8,415.984,411.2,417.536,409.576,419.072z M99.824,416.568l-2.208-2.176c-3.128-3.128-6.144-6.32-9.048-9.584l5.976-5.312   c2.8,3.144,5.704,6.224,8.728,9.24l2.136,2.104L99.824,416.568z M78.184,392.264c-3.28-4.264-6.456-8.72-9.44-13.248l6.68-4.408   c2.88,4.368,5.944,8.672,9.104,12.784L78.184,392.264z M435.704,389.784L429.296,385c3.12-4.184,6.128-8.536,8.936-12.936   l6.736,4.312C442.064,380.928,438.952,385.448,435.704,389.784z M60.288,365.088c-2.64-4.72-5.128-9.592-7.408-14.496l7.248-3.376   c2.2,4.72,4.6,9.424,7.144,13.976L60.288,365.088z M453.224,362.312l-7.032-3.8c2.472-4.576,4.808-9.32,6.944-14.088l7.296,3.264   C458.224,352.648,455.792,357.56,453.224,362.312z M46.552,335.584c-1.912-5.048-3.664-10.232-5.208-15.424l7.664-2.28   c1.496,5,3.184,10.008,5.032,14.872L46.552,335.584z M466.552,332.608l-7.512-2.736c1.776-4.864,3.392-9.896,4.816-14.944   l7.704,2.168C470.072,322.344,468.384,327.552,466.552,332.608z M37.256,304.408c-1.16-5.264-2.144-10.656-2.92-16.016l7.912-1.16   C43,292.4,43.944,297.6,45.072,302.688L37.256,304.408z M475.4,301.272l-7.84-1.608c1.056-5.144,1.928-10.352,2.592-15.496   l7.936,1.032C477.392,290.528,476.488,295.936,475.4,301.272z M32.576,272.2C32.192,266.816,32,261.368,32,256.008l8-0.088v0.088   c0,5.168,0.184,10.424,0.56,15.616L32.576,272.2z M479.616,268.992l-7.984-0.456c0.232-4.176,0.36-8.36,0.368-12.552l-0.024-3.16   l8-0.112l0.024,3.28C479.992,260.336,479.864,264.672,479.616,268.992z M40.576,240.24l-7.976-0.576   c0.392-5.4,0.984-10.84,1.768-16.192l7.912,1.16C41.528,229.784,40.952,235.04,40.576,240.24z M471.176,237.152   c-0.448-5.16-1.096-10.408-1.928-15.584l7.904-1.264c0.856,5.376,1.528,10.816,1.992,16.168L471.176,237.152z M45.112,209.168   l-7.816-1.72c1.168-5.288,2.544-10.592,4.096-15.776l7.664,2.296C47.56,198.96,46.232,204.072,45.112,209.168z M466.2,206.152   c-1.184-5.024-2.584-10.12-4.16-15.144l7.624-2.392c1.64,5.2,3.088,10.488,4.312,15.704L466.2,206.152z M54.096,179.096l-7.48-2.84   c1.912-5.032,4.04-10.08,6.344-15.008l7.248,3.376C58,169.376,55.944,174.24,54.096,179.096z M456.784,176.224   c-1.896-4.784-4.024-9.616-6.312-14.384l7.2-3.472c2.376,4.928,4.576,9.944,6.544,14.896L456.784,176.224z M67.376,150.64   l-6.984-3.904c2.64-4.72,5.488-9.4,8.472-13.92l6.68,4.408C72.664,141.576,69.92,146.096,67.376,150.64z M443.12,147.984   c-2.592-4.48-5.4-8.952-8.352-13.288l6.624-4.496c3.056,4.496,5.96,9.144,8.648,13.792L443.12,147.984z M84.664,124.424   l-6.336-4.872c3.304-4.288,6.808-8.512,10.408-12.544l5.968,5.328C91.232,116.216,87.856,120.288,84.664,124.424z M425.488,122.056   c-3.248-4.096-6.68-8.12-10.192-11.952l5.888-5.408c3.656,3.976,7.208,8.152,10.568,12.392L425.488,122.056z M105.568,100.992   L100,95.256c3.864-3.76,7.928-7.432,12.072-10.912l5.152,6.128C113.224,93.832,109.304,97.376,105.568,100.992z M404.264,98.912   c-3.816-3.608-7.792-7.104-11.808-10.376l5.064-6.2c4.168,3.4,8.28,7.024,12.24,10.768L404.264,98.912z M129.592,80.816   l-4.688-6.488c4.368-3.16,8.92-6.2,13.528-9.056l4.2,6.816C138.192,74.832,133.808,77.768,129.592,80.816z M379.944,79.048   c-4.312-3.032-8.752-5.904-13.176-8.544l4.096-6.872c4.6,2.744,9.2,5.728,13.68,8.872L379.944,79.048z M156.28,64.328l-3.696-7.096   c4.832-2.512,9.776-4.856,14.704-6.984l3.168,7.344C165.696,59.64,160.928,61.904,156.28,64.328z M352.992,62.928   c-4.672-2.344-9.48-4.544-14.28-6.528l3.048-7.392c4.992,2.056,9.984,4.336,14.832,6.784L352.992,62.928z M185.088,51.92   l-2.616-7.56c5.096-1.768,10.336-3.368,15.56-4.776l2.072,7.736C195.056,48.664,190.008,50.216,185.088,51.92z M323.976,50.92   c-5.016-1.656-10.088-3.136-15.08-4.376l1.936-7.768c5.176,1.296,10.456,2.832,15.656,4.544L323.976,50.92z M215.408,43.832   l-1.504-7.856c5.272-1.008,10.688-1.832,16.096-2.472l0.928,7.952C225.712,42.056,220.496,42.856,215.408,43.832z M293.536,43.264   c-5.192-0.904-10.432-1.632-15.552-2.152l0.8-7.952c5.32,0.528,10.752,1.28,16.136,2.224L293.536,43.264z M246.592,40.208l-0.352-8   c5.424-0.24,10.856-0.28,16.288-0.12l-0.232,8C257.056,39.936,251.824,39.976,246.592,40.208z"/>
</g>
<polygon style="fill:#FE585D;" points="170.2,421.768 373.064,218.896 289.76,218.896 348.648,103.12 170.2,255.616 263.96,255.616   "/>
<g>
</g>
<g>
</g>
<g>
</g>
<g>
</g>
<g>
</g>
<g>
</g>
<g>
</g>
<g>
</g>
<g>
</g>
<g>
</g>
<g>
</g>
<g>
</g>
<g>
</g>
<g>
</g>
<g>
</g>
</svg>
