<?xml version="1.0" encoding="iso-8859-1"?>
<!-- Generator: Adobe Illustrator 19.0.0, SVG Export Plug-In . SVG Version: 6.00 Build 0)  -->
<svg xmlns="http://www.w3.org/2000/svg" xmlns:xlink="http://www.w3.org/1999/xlink" version="1.1" id="Capa_1" x="0px" y="0px" viewBox="0 0 512 512" style="enable-background:new 0 0 512 512;" xml:space="preserve">
<circle style="fill:#629FD6;" cx="231.664" cy="256" r="231.664"/>
<g>
	<path style="fill:#36C9AD;" d="M334.08,48.192c-5.232,9.392-11.24,25.408-3.864,41.584c11.488,25.136,4.872,24.656-16.56,33.144   s-9.832-8.488-33.144,0c0,0,2.704,26.888,0,33.144c-2.704,6.248-3.632,37.176-16.56,16.56   c-12.928-20.616-29.16-27.264-29.16-27.264s-8.048,0.96-8.048,24.6c0,17.096-31.912,36.152-29.056,52.384   s1.36,17.808,10.992,24.832c3.48,2.544,5.288,13.624,5.576,24.872c0.432,17.168-4.68,7.856,16.56,16.56   s18.248,20.488,33.144,33.144c14.904,12.656,24.584-0.984,33.144,33.144s20.632,61.16,33.144,49.704   c12.512-11.448,24.936-16.856,33.144-49.704s6.368-4.736,16.56-49.704c10.208-44.968,20.4-46.736,20.4-46.736   s22.616-1.824,25.784,12.816c2.968,13.688,16.016,10.88,19.912,8.328c4.664-3.048,11.976-10.912,17.104-16.736   c0.064-2.288,0.176-4.56,0.176-6.864C463.328,164.832,410.64,86,334.08,48.192z"/>
	<path style="fill:#36C9AD;" d="M131.44,106.36c20.36-8.816,44.392-14.104,66.272-16.56s-2.304-25.352,0-33.144   c1.384-4.64,13.192-20.208,22.504-32.032c-23.088,1.128-45.272,5.656-66.104,13.056c-0.272,8.808-2.352,20.456-9.568,32.08   C142.792,72.584,118.784,111.832,131.44,106.36z"/>
	<path style="fill:#36C9AD;" d="M35.992,239.48c0.448-7.472,13.12-18.416,12.624-17.144c-0.512,1.288,16.976-38.368,16.56-49.704   c-0.416-11.32-6.792-26.8,0-49.704c3.48-11.752,6.176-25.336,7.984-35.8C28.152,129.384,0,189.392,0,256   c0,5.84,0.288,11.608,0.712,17.344C13.072,264.864,35.152,253.352,35.992,239.48z"/>
	<path style="fill:#36C9AD;" d="M166.36,478.264c6.344-63.512-50.296-79.672-51.488-90.232c-1.72-15.344-33.84-33.008-49.704-33.144   c-15.864-0.136-5.76-37.992-16.56-49.704c-6.776-7.344-25.992,6.856-38.784,17.624C32.296,397.512,91.44,456.288,166.36,478.264z"/>
</g>
<path style="fill:#DFE6F4;" d="M288.696,248.312h4.056c4.032-16.976,19.328-29.696,37.624-29.696c4.448,0,8.944,0.984,12.672,2.224  c8.944-25.392,33.184-43.632,61.752-43.632c36.176,0,65.504,29.176,65.504,65.176c0,2.272-0.128,4.504-0.344,6.712  c23.792,4.096,42.04,24.792,42.04,49.576c0,27.696-22.776,50.368-50.608,50.368H288.72c-27.832,0-50.608-22.656-50.608-50.368  C238.088,270.984,260.864,248.312,288.696,248.312z"/>
<path style="fill:#B5C0D6;" d="M299.144,183.336h-4.056c-4.032-16.976-19.328-29.696-37.624-29.696  c-4.448,0-8.944,0.984-12.672,2.224c-8.944-25.392-33.184-43.632-61.752-43.632c-36.176,0-65.504,29.176-65.504,65.176  c0,2.272,0.128,4.504,0.344,6.712c-23.776,4.088-42.024,24.792-42.024,49.568c0,27.696,22.776,50.368,50.608,50.368H299.12  c27.832,0,50.608-22.656,50.608-50.368C349.752,206.008,326.976,183.336,299.144,183.336z"/>
<g>
</g>
<g>
</g>
<g>
</g>
<g>
</g>
<g>
</g>
<g>
</g>
<g>
</g>
<g>
</g>
<g>
</g>
<g>
</g>
<g>
</g>
<g>
</g>
<g>
</g>
<g>
</g>
<g>
</g>
</svg>
