<?xml version="1.0" encoding="iso-8859-1"?>
<!-- Generator: Adobe Illustrator 19.0.0, SVG Export Plug-In . SVG Version: 6.00 Build 0)  -->
<svg xmlns="http://www.w3.org/2000/svg" xmlns:xlink="http://www.w3.org/1999/xlink" version="1.1" id="Capa_1" x="0px" y="0px" viewBox="0 0 511.999 511.999" style="enable-background:new 0 0 511.999 511.999;" xml:space="preserve">
<g>
	<path style="fill:#629FD6;" d="M307.174,83.367c-21.8-31.624-47.063-76.079-51.167-83.351v0.04l-0.008-0.048   c-4.104,7.264-29.368,51.727-51.167,83.359c-21.416,31.08-39.623,62.055-18.968,105.662c18.28,38.599,64.415,39.039,70.135,38.943   l0.016-0.048v0.048c5.72,0.096,51.855-0.344,70.135-38.943C346.798,145.422,328.59,114.446,307.174,83.367z"/>
	<polygon style="fill:#629FD6;" points="256.007,0 255.999,0 256.007,0.016  "/>
	<polygon style="fill:#629FD6;" points="255.991,0 255.999,0.008 255.999,0  "/>
	<polygon style="fill:#629FD6;" points="384.605,284.02 384.597,284.02 384.605,284.036  "/>
	<path style="fill:#629FD6;" d="M435.772,367.386c-21.8-31.624-47.063-76.079-51.167-83.351v0.04l-0.016-0.048   c-4.104,7.264-29.368,51.727-51.167,83.359c-21.416,31.079-39.623,62.055-18.968,105.662c18.28,38.599,64.415,39.039,70.135,38.943   l0.016-0.048v0.048c5.72,0.096,51.855-0.344,70.135-38.943C475.396,429.441,457.188,398.466,435.772,367.386z"/>
	<polygon style="fill:#629FD6;" points="384.589,284.02 384.597,284.028 384.597,284.02  "/>
	<polygon style="fill:#629FD6;" points="127.409,284.02 127.401,284.02 127.409,284.036  "/>
	<path style="fill:#629FD6;" d="M178.576,367.386c-21.8-31.624-47.055-76.079-51.167-83.351v0.056l-0.016-0.064   c-4.104,7.264-29.368,51.727-51.167,83.359c-21.416,31.079-39.623,62.055-18.968,105.662c18.28,38.599,64.415,39.039,70.135,38.943   l0.016-0.08v0.08c5.72,0.096,51.855-0.344,70.135-38.943C218.2,429.441,199.992,398.466,178.576,367.386z"/>
	<polygon style="fill:#629FD6;" points="127.393,284.02 127.401,284.028 127.401,284.02  "/>
</g>
<g>
</g>
<g>
</g>
<g>
</g>
<g>
</g>
<g>
</g>
<g>
</g>
<g>
</g>
<g>
</g>
<g>
</g>
<g>
</g>
<g>
</g>
<g>
</g>
<g>
</g>
<g>
</g>
<g>
</g>
</svg>
