<?xml version="1.0" encoding="iso-8859-1"?>
<!-- Generator: Adobe Illustrator 19.0.0, SVG Export Plug-In . SVG Version: 6.00 Build 0)  -->
<svg xmlns="http://www.w3.org/2000/svg" xmlns:xlink="http://www.w3.org/1999/xlink" version="1.1" id="Capa_1" x="0px" y="0px" viewBox="0 0 512 512" style="enable-background:new 0 0 512 512;" xml:space="preserve">
<g>
	<path style="fill:#FFD07D;" d="M86.448,210.64L0,254.576l86.448,43.936V210.64z"/>
	<path style="fill:#FFD07D;" d="M425.552,210.64v87.888L512,254.576L425.552,210.64z"/>
	<path style="fill:#FFD07D;" d="M134.416,118.08l-96.112-12.896l46.208,85.248L134.416,118.08z"/>
	<path style="fill:#FFD07D;" d="M473.696,105.184l-96.112,12.896l49.904,72.352L473.696,105.184z"/>
	<path style="fill:#FFD07D;" d="M344.8,12.88l-73.216,63.584l81.44,33.04L344.8,12.88z"/>
	<path style="fill:#FFD07D;" d="M167.2,12.88l-8.224,96.624l81.44-33.04L167.2,12.88z"/>
	<path style="fill:#FFD07D;" d="M38.304,406.816l96.112-12.912l-49.904-72.352L38.304,406.816z"/>
	<path style="fill:#FFD07D;" d="M473.696,406.816l-46.208-85.248l-49.904,72.352L473.696,406.816z"/>
	<path style="fill:#FFD07D;" d="M353.024,402.496l-81.44,33.04L344.8,499.12L353.024,402.496z"/>
	<path style="fill:#FFD07D;" d="M240.416,435.536l-81.44-33.04l8.224,96.624L240.416,435.536z"/>
</g>
<path style="fill:#FFCC67;" d="M254.496,402.496c80.912,0,146.496-65.584,146.496-146.496s-65.584-146.496-146.496-146.496  S108,175.088,108,256S173.584,402.496,254.496,402.496z"/>
<path style="fill:#FE585D;" d="M254.496,312.128c31,0,56.128-25.128,56.128-56.128s-25.128-56.128-56.128-56.128  S198.368,225,198.368,256S223.496,312.128,254.496,312.128z"/>
<g>
</g>
<g>
</g>
<g>
</g>
<g>
</g>
<g>
</g>
<g>
</g>
<g>
</g>
<g>
</g>
<g>
</g>
<g>
</g>
<g>
</g>
<g>
</g>
<g>
</g>
<g>
</g>
<g>
</g>
</svg>
