<?xml version="1.0" encoding="iso-8859-1"?>
<!-- Generator: Adobe Illustrator 19.0.0, SVG Export Plug-In . SVG Version: 6.00 Build 0)  -->
<svg xmlns="http://www.w3.org/2000/svg" xmlns:xlink="http://www.w3.org/1999/xlink" version="1.1" id="Capa_1" x="0px" y="0px" viewBox="0 0 512 512" style="enable-background:new 0 0 512 512;" xml:space="preserve">
<circle style="fill:#629FD6;" cx="256" cy="256" r="256"/>
<g>
	<path style="fill:#36C9AD;" d="M369.192,26.376c-5.776,10.384-12.416,28.08-4.264,45.944c12.688,27.776,5.376,27.248-18.304,36.624   s-10.864-9.376-36.624,0c0,0,2.992,29.712,0,36.624s-4.016,41.088-18.304,18.304s-32.224-30.128-32.224-30.128   s-8.896,1.056-8.896,27.184c0,18.896-35.264,39.952-32.112,57.888c3.152,17.936,1.504,19.68,12.144,27.44   c3.84,2.816,5.84,15.056,6.16,27.488c0.48,18.976-5.168,8.688,18.304,18.304s20.16,22.64,36.624,36.624   c16.464,13.984,27.168-1.088,36.624,36.624s22.8,67.584,36.624,54.928c13.824-12.656,27.552-18.624,36.624-54.928   s7.04-5.232,18.304-54.928c11.28-49.696,22.544-51.648,22.544-51.648s24.992-2.016,28.496,14.16c3.28,15.12,17.696,12.016,22,9.2   c5.136-3.368,13.224-12.048,18.896-18.48c0.072-2.528,0.192-5.048,0.192-7.6C512,155.264,453.792,68.16,369.192,26.376z"/>
	<path style="fill:#36C9AD;" d="M145.248,90.64c22.496-9.744,49.056-15.584,73.232-18.304s-2.544-28.016,0-36.624   c1.528-5.128,14.576-22.328,24.864-35.392c-25.512,1.24-50.032,6.248-73.048,14.432c-0.296,9.728-2.6,22.6-10.576,35.44   C157.792,53.312,131.264,96.688,145.248,90.64z"/>
	<path style="fill:#36C9AD;" d="M39.76,237.744c0.496-8.256,14.496-20.352,13.952-18.944c-0.56,1.424,18.768-42.4,18.304-54.928   c-0.464-12.512-7.504-29.616,0-54.928c3.848-12.984,6.832-27.992,8.832-39.552C31.112,116.088,0,182.392,0,256   c0,6.456,0.32,12.824,0.792,19.16C14.456,265.792,38.832,253.072,39.76,237.744z"/>
	<path style="fill:#36C9AD;" d="M183.928,501.64c7.08-70.272-55.672-88.064-56.984-99.736c-1.904-16.96-37.392-36.48-54.928-36.624   c-17.536-0.144-6.368-41.984-18.304-54.928c-7.488-8.12-28.728,7.568-42.856,19.472C35.696,412.408,101.096,477.376,183.928,501.64   z"/>
</g>
<g>
</g>
<g>
</g>
<g>
</g>
<g>
</g>
<g>
</g>
<g>
</g>
<g>
</g>
<g>
</g>
<g>
</g>
<g>
</g>
<g>
</g>
<g>
</g>
<g>
</g>
<g>
</g>
<g>
</g>
</svg>
