<?xml version="1.0" encoding="iso-8859-1"?>
<!-- Generator: Adobe Illustrator 19.0.0, SVG Export Plug-In . SVG Version: 6.00 Build 0)  -->
<svg xmlns="http://www.w3.org/2000/svg" xmlns:xlink="http://www.w3.org/1999/xlink" version="1.1" id="Capa_1" x="0px" y="0px" viewBox="0 0 512 512" style="enable-background:new 0 0 512 512;" xml:space="preserve">
<path style="fill:#FFFFFF;" d="M256,508c-67.312,0-130.592-26.216-178.192-73.816C30.216,386.592,4,323.312,4,256  S30.216,125.408,77.808,77.816C125.408,30.216,188.688,4,256,4s130.592,26.216,178.184,73.816S508,188.688,508,256  s-26.216,130.592-73.816,178.184S323.312,508,256,508z"/>
<g>
	<path style="fill:#B5C0D6;" d="M256,8c66.24,0,128.52,25.8,175.36,72.64c96.696,96.696,96.696,254.032,0,350.728   C384.52,478.2,322.24,504,256,504s-128.52-25.8-175.36-72.64c-96.696-96.696-96.696-254.032,0-350.728C127.48,33.8,189.76,8,256,8    M256,0C190.48,0,124.968,24.992,74.984,74.984c-99.976,99.976-99.976,262.064,0,362.04C124.968,487.008,190.48,512,256,512   s131.032-24.992,181.016-74.984c99.976-99.976,99.976-262.064,0-362.04C387.032,24.992,321.52,0,256,0L256,0z"/>
	<path style="fill:#B5C0D6;" d="M262.408,479.904l-0.216-8c5.216-0.144,10.488-0.488,15.664-1.008l0.816,7.952   C273.296,479.4,267.832,479.76,262.408,479.904z M246.128,479.776c-5.44-0.24-10.896-0.68-16.232-1.296l0.92-7.952   c5.144,0.6,10.416,1.024,15.664,1.248L246.128,479.776z M294.792,476.624l-1.376-7.872c5.104-0.888,10.264-1.992,15.368-3.264   l1.936,7.768C305.44,474.568,300.08,475.704,294.792,476.624z M213.792,476.008c-5.352-1.024-10.696-2.248-15.88-3.632l2.072-7.736   c5,1.344,10.152,2.52,15.312,3.504L213.792,476.008z M326.36,468.704l-2.496-7.592c4.968-1.64,9.92-3.48,14.712-5.464l3.064,7.392   C336.656,465.096,331.52,467,326.36,468.704z M182.336,467.584c-5.136-1.784-10.24-3.776-15.176-5.896l3.168-7.344   c4.76,2.048,9.688,3.968,14.648,5.696L182.336,467.584z M356.448,456.28l-3.592-7.144c4.672-2.352,9.304-4.888,13.776-7.552   l4.096,6.872C366.088,451.216,361.28,453.848,356.448,456.28z M152.44,454.688c-4.776-2.496-9.544-5.2-14.168-8.064l4.208-6.8   c4.456,2.752,9.04,5.368,13.648,7.768L152.44,454.688z M384.376,439.608l-4.592-6.544c4.28-3,8.488-6.184,12.504-9.472l5.064,6.2   C393.168,433.2,388.816,436.496,384.376,439.608z M124.744,437.56c-4.352-3.16-8.672-6.536-12.84-10.04l5.16-6.128   c4.008,3.384,8.176,6.64,12.376,9.68L124.744,437.56z M409.592,419.048l-5.504-5.816c1.56-1.48,3.112-2.976,4.648-4.504   c3.696-3.696,7.296-7.56,10.696-11.496l6.048,5.232c-3.52,4.072-7.256,8.088-11.096,11.92   C412.8,415.976,411.2,417.52,409.592,419.048z M99.832,416.584l-2.232-2.2c-3.112-3.112-6.128-6.304-9.032-9.568l5.976-5.312   c2.8,3.144,5.704,6.224,8.72,9.232l2.144,2.12L99.832,416.584z M78.184,392.272c-3.288-4.272-6.464-8.736-9.44-13.248l6.68-4.408   c2.872,4.36,5.936,8.656,9.104,12.784L78.184,392.272z M435.704,389.776l-6.408-4.784c3.12-4.184,6.128-8.536,8.936-12.936   l6.736,4.312C442.064,380.92,438.944,385.44,435.704,389.776z M60.304,365.096c-2.64-4.72-5.128-9.592-7.408-14.496l7.248-3.376   c2.2,4.72,4.6,9.424,7.144,13.976L60.304,365.096z M453.208,362.328l-7.032-3.808c2.472-4.568,4.808-9.312,6.944-14.08l7.296,3.264   C458.208,352.664,455.784,357.576,453.208,362.328z M46.568,335.608c-1.912-5.032-3.664-10.224-5.216-15.432l7.664-2.28   c1.496,5.016,3.192,10.016,5.032,14.864L46.568,335.608z M466.536,332.608l-7.512-2.736c1.776-4.864,3.392-9.896,4.816-14.944   l7.704,2.168C470.064,322.344,468.376,327.552,466.536,332.608z M37.264,304.416c-1.16-5.264-2.144-10.656-2.92-16.016l7.912-1.16   c0.752,5.168,1.696,10.368,2.824,15.456L37.264,304.416z M475.4,301.264l-7.84-1.608c1.056-5.144,1.928-10.352,2.592-15.496   l7.936,1.032C477.392,290.52,476.488,295.928,475.4,301.264z M32.584,272.208C32.192,266.84,32,261.392,32,256l8-0.064V256   c0,5.192,0.192,10.456,0.56,15.632L32.584,272.208z M479.616,268.992l-7.984-0.456c0.232-4.168,0.36-8.36,0.36-12.536l-0.024-3.168   l8-0.112l0.024,3.28C479.992,260.336,479.864,264.664,479.616,268.992z M40.576,240.24l-7.976-0.576   c0.392-5.4,0.984-10.84,1.768-16.192l7.912,1.16C41.528,229.784,40.952,235.04,40.576,240.24z M471.168,237.144   c-0.456-5.192-1.104-10.44-1.928-15.576l7.888-1.28c0.864,5.344,1.536,10.784,2.008,16.168L471.168,237.144z M45.112,209.16   l-7.816-1.72c1.168-5.288,2.544-10.592,4.096-15.776l7.664,2.296C47.56,198.96,46.232,204.072,45.112,209.16z M466.192,206.16   c-1.2-5.064-2.6-10.16-4.168-15.152l7.624-2.392c1.624,5.168,3.08,10.448,4.32,15.696L466.192,206.16z M54.096,179.104l-7.48-2.84   c1.912-5.032,4.04-10.08,6.344-15.008l7.248,3.376C58,169.384,55.944,174.248,54.096,179.104z M456.784,176.216   c-1.896-4.784-4.024-9.616-6.312-14.384l7.2-3.472c2.376,4.928,4.576,9.944,6.544,14.896L456.784,176.216z M67.376,150.64   l-6.984-3.904c2.64-4.72,5.488-9.4,8.472-13.92l6.68,4.408C72.664,141.576,69.92,146.096,67.376,150.64z M443.12,147.984   c-2.592-4.48-5.4-8.952-8.352-13.288l6.624-4.496c3.056,4.496,5.96,9.144,8.648,13.792L443.12,147.984z M84.664,124.424   l-6.344-4.88c3.296-4.28,6.8-8.496,10.408-12.544l5.968,5.328C91.208,116.224,87.832,120.296,84.664,124.424z M425.48,122.056   c-3.248-4.096-6.68-8.12-10.192-11.952l5.888-5.408c3.656,3.976,7.208,8.152,10.568,12.392L425.48,122.056z M105.56,100.992   l-5.568-5.736c3.864-3.76,7.928-7.432,12.072-10.912l5.152,6.128C113.216,93.832,109.296,97.376,105.56,100.992z M404.256,98.912   c-3.816-3.608-7.792-7.104-11.808-10.376l5.064-6.2c4.168,3.4,8.28,7.024,12.24,10.768L404.256,98.912z M129.592,80.824   l-4.688-6.488c4.352-3.152,8.904-6.192,13.52-9.056l4.2,6.816C138.176,74.84,133.792,77.784,129.592,80.824z M379.936,79.048   c-4.312-3.032-8.752-5.904-13.176-8.544l4.096-6.872c4.6,2.744,9.2,5.728,13.68,8.872L379.936,79.048z M156.28,64.336l-3.696-7.096   c4.816-2.504,9.76-4.856,14.704-6.984l3.16,7.344C165.688,59.656,160.92,61.92,156.28,64.336z M352.984,62.928   c-4.672-2.344-9.48-4.544-14.28-6.528l3.048-7.392c4.992,2.056,9.984,4.336,14.832,6.784L352.984,62.928z M185.088,51.928   l-2.616-7.56c5.096-1.768,10.336-3.368,15.56-4.776l2.072,7.736C195.056,48.672,190,50.224,185.088,51.928z M323.968,50.92   c-4.92-1.624-9.992-3.104-15.088-4.376l1.952-7.768c5.272,1.328,10.536,2.856,15.648,4.544L323.968,50.92z M215.408,43.832   l-1.504-7.856c5.272-1.008,10.688-1.832,16.096-2.472l0.928,7.952C225.712,42.064,220.488,42.864,215.408,43.832z M293.528,43.272   c-5.192-0.904-10.432-1.632-15.552-2.152l0.8-7.952c5.32,0.528,10.752,1.28,16.136,2.224L293.528,43.272z M246.584,40.216l-0.352-8   c5.424-0.232,10.88-0.272,16.296-0.12l-0.232,8C257.064,39.944,251.808,39.976,246.584,40.216z"/>
</g>
<g>
	<path style="fill:#629FD6;" d="M256,107.52c-5.04,8.92-36.192,63.744-63.064,102.744c-26.392,38.304-48.832,76.48-23.376,130.224   c22.528,47.568,79.392,48.112,86.44,47.992V107.52z"/>
	<path style="fill:#629FD6;" d="M256,107.52c5.04,8.92,36.192,63.744,63.064,102.744c26.392,38.304,48.832,76.48,23.376,130.224   C319.912,388.056,263.048,388.6,256,388.48V107.52z"/>
</g>
<g>
</g>
<g>
</g>
<g>
</g>
<g>
</g>
<g>
</g>
<g>
</g>
<g>
</g>
<g>
</g>
<g>
</g>
<g>
</g>
<g>
</g>
<g>
</g>
<g>
</g>
<g>
</g>
<g>
</g>
</svg>
